<svg width="35" height="38" viewBox="0 0 35 38" fill="none" xmlns="http://www.w3.org/2000/svg">
<path fill-rule="evenodd" clip-rule="evenodd" d="M5.96005 3.50435C8.47101 2.27547 12.5905 0.82251 17.0987 0.82251C21.5129 0.82251 25.5238 2.2151 28.0215 3.4276L28.1627 3.49616C28.9158 3.86861 29.5236 4.22059 29.9513 4.50607L26.1715 10.0314C34.8852 18.9395 41.6159 37.655 17.0987 37.655C-7.41843 37.655 -0.868854 19.2792 7.92053 10.0314L4.16534 4.50607C4.45491 4.31677 4.82224 4.09678 5.26018 3.86349C5.4771 3.74685 5.71039 3.62611 5.96005 3.50435ZM23.7424 9.95774L26.7681 5.53439C23.9542 5.73699 20.6063 6.39798 17.3832 7.33115C15.081 7.99624 12.5229 7.89494 10.1542 7.45803C9.55729 7.34737 8.96448 7.21563 8.37688 7.06307L10.3414 9.95569C14.552 11.4547 19.5309 11.4547 23.7424 9.95774ZM9.15963 11.6992C14.0864 13.6024 20.0077 13.6024 24.9345 11.6972C26.991 13.8651 28.7113 16.3286 30.0382 19.006C31.4216 21.828 32.1747 24.649 32.0519 27.0801C31.9332 29.4264 31.0103 31.4308 28.9025 32.9206C26.7057 34.4728 23.0108 35.6086 17.0977 35.6086C11.1784 35.6086 7.46622 34.4923 5.24892 32.9575C3.12576 31.4861 2.19362 29.5092 2.06162 27.1947C1.92349 24.7902 2.6602 21.9835 4.03846 19.1421C5.35329 16.4326 7.18791 13.8244 9.15963 11.6992ZM7.98294 4.8294C8.80151 5.07293 9.65691 5.28473 10.5246 5.44537C12.7245 5.85057 14.9305 5.90991 16.8132 5.36454C19.0072 4.72539 21.2387 4.22271 23.4948 3.8594C21.6121 3.29254 19.4102 2.86893 17.0977 2.86893C13.5727 2.86893 10.2852 3.85224 7.98294 4.8294Z" fill="white"/>
</svg>
