<svg width="49" height="49" viewBox="0 0 49 49" fill="none" xmlns="http://www.w3.org/2000/svg">
<path d="M17.4041 29.354L16.0254 27.9753L11.7514 29.3402H11.6135C11.5463 29.3444 11.479 29.3343 11.416 29.3105C11.3531 29.2867 11.2958 29.2499 11.2482 29.2023L10.2486 28.2166C10.1679 28.1398 10.1162 28.0374 10.1024 27.9268C10.0885 27.8162 10.1134 27.7043 10.1728 27.6099L11.3378 25.6039C12.0594 24.369 13.0661 23.3248 14.2737 22.5584C15.4814 21.7921 16.8549 21.326 18.2795 21.199L19.996 21.0473M19.996 21.0473C20.9933 19.8616 21.9124 18.846 22.7534 18.0004C24.3492 16.3101 26.2539 14.9412 28.3647 13.9677C30.5162 13.1635 32.8039 12.7865 35.0997 12.8578C35.2386 12.8591 35.3717 12.9133 35.4719 13.0095C35.5197 13.0533 35.5578 13.1066 35.5839 13.1659C35.61 13.2253 35.6235 13.2893 35.6236 13.3542C35.6707 15.6568 35.2606 17.946 34.4172 20.0891C33.4688 22.2061 32.1152 24.1171 30.4328 25.7142C29.5849 26.569 28.5646 27.4859 27.3859 28.4716L27.2342 30.1812C27.1105 31.6051 26.648 32.9788 25.8853 34.1876C25.1226 35.3964 24.0819 36.4052 22.8499 37.1299L20.8577 38.2949C20.7791 38.3363 20.6915 38.3576 20.6026 38.3569C20.4707 38.3542 20.3439 38.3054 20.2442 38.219L19.2446 37.2126C19.1801 37.1509 19.1342 37.0723 19.1123 36.9857C19.0903 36.8991 19.0932 36.8082 19.1205 36.7232L20.451 32.4009M19.996 21.0473L16.0598 28.0098M20.451 32.4009L19.1136 31.0636M20.451 32.4009L27.4134 28.4716M32.101 19.193C32.1029 18.4446 31.8078 17.726 31.2805 17.1948C30.7533 16.6637 30.0369 16.3634 29.2885 16.3597C28.9051 16.3408 28.5219 16.4 28.1621 16.5336C27.8023 16.6673 27.4734 16.8727 27.1954 17.1373C26.9174 17.402 26.696 17.7203 26.5448 18.0731C26.3935 18.4259 26.3155 18.8057 26.3155 19.1895C26.3155 19.5733 26.3935 19.9532 26.5448 20.3059C26.696 20.6587 26.9174 20.9771 27.1954 21.2417C27.4734 21.5063 27.8023 21.7117 28.1621 21.8454C28.5219 21.9791 28.9051 22.0382 29.2885 22.0193C30.0316 22.0204 30.7451 21.7281 31.2738 21.2059C31.5398 20.9434 31.7497 20.6297 31.8907 20.2837C32.0317 19.9376 32.1009 19.5666 32.0941 19.193H32.101Z" stroke="white" stroke-width="0.608002" stroke-linecap="round" stroke-linejoin="round"/>
<path d="M15.2676 33.1868C18.025 32.6767 22.9194 28.0856 23.4915 24.9628C20.3481 25.5626 15.757 30.4294 15.2676 33.1868Z" stroke="white" stroke-width="0.608002" stroke-linecap="round" stroke-linejoin="round"/>
<circle cx="24.2734" cy="24.5366" r="23.7121" stroke="white" stroke-width="0.608002"/>
</svg>
